<?xml version="1.0" standalone="no"?>
<!DOCTYPE svg PUBLIC "-//W3C//DTD SVG 20010904//EN"
 "http://www.w3.org/TR/2001/REC-SVG-20010904/DTD/svg10.dtd">
<svg version="1.0" xmlns="http://www.w3.org/2000/svg"
 width="6425.000000pt" height="4342.000000pt" viewBox="0 0 6425.000000 4342.000000"
 preserveAspectRatio="xMidYMid meet">

<g transform="translate(0.000000,4342.000000) scale(0.100000,-0.100000)"
fill="#c30ff3" stroke="none">
<path d="M0 24635 c0 -10769 4 -18785 9 -18785 5 0 14 7 21 15 7 8 18 15 25
15 7 0 18 7 25 16 8 8 27 22 44 29 53 25 160 86 177 101 8 8 20 14 25 14 6 0
25 11 44 25 19 14 41 25 50 25 9 0 25 9 34 19 10 11 31 23 47 26 16 4 29 10
29 15 0 4 15 13 32 20 18 8 40 19 48 25 8 7 26 16 39 20 12 4 38 17 57 30 19
13 77 44 129 70 52 25 97 50 100 55 4 6 14 10 24 10 10 0 26 9 36 20 10 11 26
20 35 20 10 0 29 9 43 20 14 11 30 20 36 20 9 0 76 31 131 62 8 4 26 13 40 19
14 6 32 15 40 20 8 5 26 14 40 20 14 6 32 15 40 20 8 5 26 14 40 20 14 6 68
32 120 56 52 25 115 54 140 65 25 12 52 25 60 30 8 4 26 13 40 19 14 6 45 20
70 31 25 12 65 30 90 41 25 11 52 24 60 29 8 4 26 13 40 19 14 6 48 22 76 35
28 13 58 24 66 24 9 0 21 6 27 14 7 8 27 18 44 22 18 3 43 15 56 25 13 11 33
19 43 19 11 0 31 9 45 20 14 11 34 20 45 20 10 0 37 9 59 20 100 51 116 58
146 64 17 4 37 13 43 21 6 7 29 16 50 20 21 4 44 13 50 20 6 8 26 17 43 21 18
4 48 15 67 25 19 11 40 19 47 19 6 0 27 9 45 19 18 10 47 22 65 26 17 3 37 13
44 21 6 8 21 14 33 14 12 0 37 8 56 19 19 10 49 21 67 25 17 4 37 13 43 21 6
7 27 16 47 20 21 4 54 15 75 26 20 10 46 19 56 19 11 0 25 7 32 15 7 8 28 17
49 21 20 4 50 15 67 25 17 11 39 19 48 19 9 0 33 9 53 20 21 11 46 20 57 20
10 0 33 9 50 19 17 10 50 22 73 26 23 3 47 12 53 20 6 7 27 16 47 20 20 3 45
13 57 20 12 7 39 17 61 21 22 3 47 13 56 20 8 8 36 18 61 22 25 5 56 16 69 25
13 10 34 17 47 17 12 0 40 9 62 20 22 11 46 20 55 20 9 0 33 9 53 19 21 11 55
22 75 26 21 4 54 16 74 26 21 11 47 19 58 19 11 0 38 9 60 20 22 11 46 20 55
20 9 0 33 9 55 20 22 11 52 20 68 20 15 0 45 9 67 20 22 11 48 20 59 20 11 0
40 8 63 19 61 26 135 51 188 62 25 5 54 15 65 21 11 6 43 17 70 24 28 7 68 20
90 28 22 8 49 15 60 16 12 0 38 9 60 20 22 11 50 20 62 20 13 0 40 7 61 16 20
9 55 20 77 24 22 5 61 15 88 24 26 9 68 23 95 32 26 8 70 20 97 25 28 5 61 16
75 23 14 7 47 17 74 21 27 4 59 13 70 20 12 8 46 18 76 24 30 5 73 16 95 25
22 8 53 15 68 16 15 0 45 9 67 20 22 11 55 20 75 20 20 0 53 9 75 20 22 11 54
20 72 20 18 1 51 8 73 16 22 9 67 21 100 28 33 7 69 17 80 23 11 6 45 14 75
18 30 4 69 13 85 21 17 8 57 18 90 23 33 5 78 16 100 25 22 8 56 15 76 16 20
0 56 9 80 20 24 11 64 20 89 20 25 0 63 9 85 20 22 11 57 19 77 20 21 0 64 9
95 19 32 11 83 22 113 26 30 3 80 15 112 26 32 10 73 19 93 19 20 0 52 7 72
15 21 9 64 18 98 22 33 3 82 14 108 24 26 11 70 19 97 19 27 0 72 9 100 20 28
11 73 20 100 20 27 0 72 9 100 20 28 11 73 20 99 20 27 0 77 9 112 19 35 10
97 22 138 26 40 3 85 11 100 17 14 6 69 16 121 24 52 8 120 21 150 29 30 8 78
15 106 15 28 0 71 7 95 16 24 8 89 19 144 24 55 5 123 16 150 24 28 7 89 16
137 19 48 3 97 11 109 18 12 6 76 16 142 20 65 5 128 14 140 20 11 7 75 15
141 20 67 5 150 16 186 25 36 8 117 19 180 24 63 4 135 13 160 19 25 6 106 15
180 20 74 5 148 15 165 21 16 6 106 15 200 21 93 5 186 14 205 19 19 6 121 15
225 20 105 6 206 15 225 20 19 6 145 15 280 21 135 5 256 14 269 20 13 5 171
14 350 19 179 6 351 14 381 20 218 40 2778 40 2975 0 28 -6 199 -14 380 -20
182 -5 345 -14 364 -20 19 -5 143 -14 276 -19 133 -6 254 -15 268 -20 15 -6
116 -15 224 -20 109 -6 214 -15 233 -21 19 -6 107 -15 195 -20 88 -4 187 -15
220 -24 32 -9 98 -16 145 -16 47 0 128 -9 180 -19 52 -10 145 -22 205 -26 61
-4 128 -13 150 -21 22 -7 87 -16 145 -20 58 -3 130 -12 160 -21 29 -8 101 -19
160 -23 58 -5 121 -14 140 -20 19 -6 82 -15 140 -20 58 -5 123 -16 145 -24 22
-8 70 -15 106 -16 38 0 94 -9 129 -20 34 -11 86 -20 114 -20 28 0 76 -7 106
-15 30 -9 93 -20 140 -26 47 -5 105 -16 129 -24 24 -8 74 -17 110 -21 36 -3
84 -12 106 -19 22 -8 79 -19 127 -24 48 -6 96 -15 107 -21 11 -5 59 -14 108
-19 48 -5 105 -17 125 -25 21 -9 55 -16 78 -16 22 0 66 -9 97 -19 32 -11 86
-22 121 -25 34 -3 75 -12 90 -20 15 -7 59 -17 97 -21 39 -4 81 -13 95 -20 14
-7 52 -16 85 -20 33 -4 86 -15 118 -26 31 -10 73 -19 92 -19 20 0 52 -7 73
-16 20 -9 66 -20 102 -24 36 -5 79 -16 95 -24 17 -9 48 -16 70 -16 22 -1 58
-8 80 -16 22 -9 67 -20 100 -26 33 -6 71 -16 85 -23 14 -7 50 -16 80 -20 30
-4 67 -13 81 -21 14 -7 50 -16 80 -20 30 -4 76 -15 102 -25 26 -11 61 -19 78
-19 17 0 51 -9 77 -19 26 -11 67 -22 92 -25 25 -3 59 -12 75 -20 17 -9 46 -16
65 -16 19 0 52 -9 73 -20 20 -11 52 -20 69 -20 18 0 51 -9 73 -19 23 -10 63
-21 90 -26 27 -4 62 -13 76 -21 15 -7 46 -17 70 -20 24 -4 62 -15 84 -25 22
-10 54 -19 70 -19 17 0 48 -9 70 -20 22 -11 52 -19 66 -20 15 0 46 -9 70 -20
24 -11 58 -20 74 -20 17 0 46 -8 65 -18 19 -11 55 -22 80 -26 25 -4 54 -13 65
-20 11 -7 40 -16 65 -20 25 -4 54 -13 65 -20 11 -8 41 -17 65 -21 25 -4 61
-16 80 -26 19 -11 48 -19 65 -19 17 0 47 -9 68 -20 20 -11 47 -20 59 -20 13 0
43 -9 67 -20 24 -11 53 -20 65 -20 12 0 37 -8 56 -19 19 -10 53 -21 75 -25 22
-4 49 -14 61 -21 12 -7 39 -17 60 -20 21 -4 48 -13 60 -20 12 -8 39 -17 60
-21 21 -4 57 -15 79 -25 22 -10 49 -19 60 -19 11 0 37 -9 58 -20 20 -11 47
-20 59 -20 13 0 37 -7 53 -16 17 -9 50 -21 74 -25 25 -5 52 -15 60 -23 9 -8
35 -17 58 -21 22 -3 49 -13 60 -20 10 -8 27 -15 38 -15 11 0 36 -9 56 -19 20
-11 54 -23 75 -27 22 -3 53 -15 70 -25 17 -11 41 -19 53 -19 11 0 38 -9 58
-20 21 -11 47 -20 58 -20 11 0 35 -9 53 -20 18 -11 40 -20 50 -20 10 0 35 -9
57 -20 22 -11 48 -20 58 -20 11 0 34 -9 51 -19 17 -10 47 -22 66 -26 19 -4 42
-13 50 -20 8 -7 31 -16 50 -20 19 -4 52 -16 72 -26 21 -11 45 -19 55 -19 10 0
32 -9 48 -20 17 -11 42 -20 56 -20 15 0 38 -9 52 -20 14 -11 33 -20 44 -20 10
0 32 -7 48 -16 17 -9 51 -22 77 -30 26 -8 50 -19 53 -24 3 -6 14 -10 23 -10 9
0 40 -11 67 -25 28 -13 59 -25 69 -25 11 0 27 -6 35 -13 9 -8 37 -21 64 -30
26 -10 68 -24 95 -34 26 -9 54 -22 63 -30 8 -7 24 -13 34 -13 10 0 32 -9 49
-19 17 -10 47 -22 66 -26 19 -4 42 -13 50 -20 8 -7 26 -16 40 -20 26 -7 89
-34 152 -66 20 -11 44 -19 53 -19 9 0 34 -9 56 -20 21 -11 57 -29 78 -40 22
-11 46 -20 53 -20 7 0 29 -8 48 -19 19 -10 46 -22 60 -26 14 -4 32 -13 40 -20
8 -6 36 -18 63 -25 26 -7 47 -16 47 -21 0 -4 15 -11 33 -15 17 -3 43 -15 56
-25 13 -11 34 -19 46 -19 12 0 34 -9 48 -20 14 -11 34 -20 45 -20 10 0 31 -9
45 -20 14 -11 34 -20 45 -20 10 0 31 -9 45 -20 14 -11 31 -20 37 -20 7 0 29
-9 49 -19 47 -25 140 -67 168 -75 11 -4 27 -13 33 -21 7 -8 23 -15 35 -15 12
0 34 -9 48 -20 14 -11 30 -20 37 -20 6 0 28 -9 48 -19 20 -11 48 -24 62 -30
14 -6 32 -15 40 -20 8 -4 39 -19 69 -32 29 -13 92 -43 138 -67 47 -23 93 -42
103 -42 9 0 25 -9 35 -20 10 -11 26 -20 35 -20 10 0 29 -9 43 -20 14 -11 32
-20 40 -20 8 0 25 -8 38 -18 13 -11 38 -22 54 -26 17 -4 37 -13 45 -21 8 -7
26 -16 40 -20 14 -4 32 -13 40 -20 8 -7 32 -18 53 -25 20 -6 37 -16 37 -21 0
-5 5 -9 11 -9 10 0 127 -55 169 -79 8 -5 26 -14 40 -20 14 -6 32 -15 40 -20 8
-5 26 -14 40 -20 14 -6 32 -15 40 -21 8 -5 26 -14 40 -20 14 -5 32 -14 40 -19
29 -19 147 -71 158 -71 7 0 12 -4 12 -8 0 -5 17 -16 38 -25 20 -9 44 -20 52
-26 8 -5 26 -14 40 -20 14 -6 32 -15 40 -20 8 -5 26 -14 40 -20 14 -6 32 -15
40 -21 8 -5 26 -14 40 -20 14 -5 32 -14 40 -19 8 -5 40 -20 70 -34 69 -31 310
-147 413 -198 43 -21 85 -39 94 -39 8 0 26 -9 40 -20 14 -11 33 -20 43 -20 9
0 25 -9 35 -20 10 -11 27 -20 37 -20 11 0 36 -9 56 -20 20 -10 82 -40 137 -65
55 -25 117 -55 137 -65 20 -11 44 -20 53 -20 9 0 28 -9 42 -20 14 -11 35 -20
45 -20 11 0 31 -9 45 -20 14 -11 32 -20 41 -20 8 0 29 -9 46 -19 17 -10 45
-22 63 -26 17 -3 37 -12 43 -20 6 -7 26 -16 44 -19 19 -4 39 -13 46 -21 7 -8
20 -15 29 -15 9 0 39 -11 66 -25 28 -13 57 -25 65 -25 8 0 26 -9 40 -20 14
-11 35 -20 46 -20 12 0 33 -9 47 -20 14 -11 33 -20 44 -20 10 0 33 -9 51 -20
17 -11 50 -23 71 -26 22 -4 42 -13 45 -20 3 -8 11 -14 19 -14 7 0 30 -9 52
-20 22 -11 44 -20 50 -20 5 0 33 -12 60 -25 28 -14 58 -25 68 -25 11 0 30 -9
44 -20 14 -11 35 -20 46 -20 11 0 34 -9 51 -19 17 -10 45 -22 63 -26 17 -3 37
-13 44 -21 6 -8 21 -14 33 -14 11 0 35 -7 51 -16 17 -9 51 -22 77 -30 26 -8
50 -19 53 -24 3 -6 14 -10 23 -10 9 0 40 -11 67 -25 28 -13 59 -25 70 -25 11
0 34 -9 50 -20 17 -11 39 -20 50 -20 11 0 34 -9 50 -20 17 -11 41 -20 54 -20
13 0 38 -8 55 -19 17 -10 47 -21 67 -25 21 -4 42 -13 49 -21 7 -8 22 -15 34
-15 12 0 37 -8 56 -19 19 -10 51 -22 70 -26 19 -4 51 -16 70 -26 19 -11 43
-19 52 -19 10 0 35 -9 55 -20 21 -11 46 -20 55 -20 10 0 32 -9 50 -20 18 -11
43 -20 56 -20 12 0 39 -9 59 -20 21 -11 48 -20 62 -20 13 0 38 -9 55 -19 17
-11 48 -22 69 -26 20 -4 54 -16 74 -26 21 -11 44 -19 53 -19 9 0 33 -9 55 -20
22 -11 51 -20 65 -20 14 0 39 -9 55 -20 17 -11 44 -20 60 -20 17 0 44 -9 60
-20 17 -11 39 -20 50 -20 11 0 37 -9 58 -20 20 -11 47 -20 58 -20 12 0 40 -9
63 -19 23 -11 63 -23 89 -26 32 -4 52 -13 60 -26 8 -14 23 -19 52 -19 23 0 58
-9 80 -20 22 -11 50 -20 62 -20 13 0 40 -9 60 -20 21 -11 50 -20 65 -20 16 0
45 -9 65 -20 21 -11 50 -20 65 -20 16 0 45 -9 65 -20 21 -11 49 -20 63 -20 14
0 42 -8 62 -19 20 -10 58 -21 84 -25 26 -3 55 -12 63 -20 9 -7 39 -17 66 -21
28 -3 60 -13 72 -21 12 -7 41 -17 65 -20 24 -4 61 -15 83 -25 22 -10 54 -19
70 -19 17 0 48 -9 70 -20 22 -11 54 -20 70 -20 17 0 48 -9 70 -19 22 -10 60
-21 84 -25 24 -3 56 -13 72 -21 15 -8 43 -15 61 -15 18 0 47 -7 63 -16 17 -9
59 -23 95 -30 36 -7 83 -19 105 -28 22 -8 52 -15 66 -16 15 0 46 -9 70 -20 24
-11 58 -20 75 -20 18 0 51 -9 75 -20 24 -11 62 -20 84 -20 22 0 60 -9 84 -20
24 -11 60 -20 80 -20 20 0 56 -9 80 -20 24 -11 60 -20 80 -20 20 0 54 -9 76
-19 22 -10 65 -21 95 -25 30 -4 68 -14 85 -21 16 -8 59 -18 95 -24 36 -5 83
-16 105 -25 22 -8 57 -15 77 -16 21 0 60 -9 88 -20 28 -11 69 -20 91 -20 22 0
61 -9 87 -19 26 -11 75 -22 110 -25 34 -3 75 -12 90 -19 15 -8 57 -17 94 -20
37 -3 80 -13 95 -21 15 -7 60 -17 98 -21 39 -4 85 -14 104 -21 19 -8 70 -18
114 -23 54 -6 85 -14 93 -25 8 -12 29 -16 85 -16 49 0 94 -7 132 -20 31 -11
76 -20 101 -20 24 0 72 -9 107 -19 35 -10 97 -22 137 -25 41 -3 86 -12 100
-20 15 -7 65 -16 112 -19 47 -3 103 -12 125 -20 22 -8 79 -18 125 -22 47 -4
104 -14 127 -21 23 -8 87 -19 143 -24 55 -5 110 -14 121 -20 11 -6 59 -14 107
-17 48 -3 120 -14 161 -24 41 -10 102 -19 135 -19 34 0 99 -9 146 -20 47 -11
114 -20 150 -20 36 0 100 -9 144 -20 43 -11 111 -20 150 -20 39 -1 105 -7 146
-16 41 -8 134 -19 205 -24 72 -6 157 -17 190 -25 33 -8 138 -19 232 -25 95 -5
181 -14 192 -19 10 -6 109 -15 220 -21 110 -6 212 -15 227 -20 14 -6 130 -15
257 -20 128 -5 248 -14 267 -20 19 -6 177 -15 350 -20 173 -6 327 -15 342 -21
15 -6 190 -15 420 -20 216 -6 506 -15 643 -20 314 -13 1151 -13 1475 0 135 5
424 14 643 19 234 6 409 14 425 21 15 6 169 15 342 21 173 5 331 14 350 20 19
6 141 15 272 20 130 5 249 15 264 20 16 6 117 15 225 21 109 5 210 13 224 19
15 6 106 15 203 21 97 6 185 15 195 20 9 6 83 14 165 20 81 5 173 17 204 25
32 8 115 19 185 24 71 4 141 13 157 19 16 7 86 15 155 20 69 5 140 14 156 21
17 6 82 15 147 20 64 5 126 13 137 20 12 6 74 15 139 21 64 5 135 16 157 23
22 8 79 17 127 20 48 3 97 10 108 16 12 6 65 16 118 21 53 5 118 16 143 25 26
8 89 18 140 23 52 4 104 13 116 20 13 6 64 16 115 20 51 5 110 17 130 25 21 9
62 16 91 16 30 0 83 9 117 20 38 12 90 20 131 20 38 0 69 4 69 9 0 14 55 28
134 36 38 3 80 12 95 19 14 7 57 17 94 21 38 4 84 13 102 20 18 8 63 17 101
21 38 4 82 13 97 21 15 8 64 18 109 23 44 5 86 14 93 20 7 5 47 14 89 20 42 5
89 16 106 25 16 8 47 15 69 15 23 0 67 9 98 19 32 11 83 23 113 26 30 4 66 13
80 20 14 7 50 16 80 20 30 4 66 13 80 20 14 7 52 16 85 20 33 4 74 14 90 22
17 8 53 17 80 19 28 3 71 14 97 25 26 10 60 19 77 19 17 0 53 9 81 20 28 11
64 20 81 20 17 0 51 9 77 19 26 11 69 22 96 25 27 3 55 11 63 18 8 6 44 17 81
24 37 7 85 19 107 28 22 8 54 15 70 16 17 0 40 7 52 15 11 8 40 17 64 21 24 3
65 14 91 25 26 10 59 19 75 19 15 0 48 9 72 20 24 11 55 20 70 20 14 0 44 9
66 19 23 10 63 21 90 25 27 5 58 14 69 22 11 8 32 14 46 14 14 1 43 8 65 16
22 9 65 22 95 29 31 7 70 20 87 29 18 9 45 16 60 16 16 0 45 9 66 20 20 11 49
20 65 20 15 0 44 9 65 20 20 11 49 20 65 20 15 0 44 9 65 20 20 11 47 20 60
20 12 0 39 9 60 20 24 13 56 20 92 20 41 0 55 4 55 14 0 14 49 36 82 36 10 0
35 9 55 20 21 11 49 20 63 20 14 0 39 9 55 20 17 11 44 20 60 20 17 0 45 9 63
20 18 11 44 20 57 20 13 0 44 9 67 19 44 20 112 44 184 64 23 7 48 18 56 24 8
7 33 15 57 19 23 4 59 15 79 25 20 11 44 19 54 19 10 0 32 9 50 20 18 11 44
20 58 20 14 0 39 9 55 20 17 11 41 20 55 20 14 0 39 8 55 18 17 11 48 22 70
26 22 4 47 13 55 21 8 7 31 15 51 19 19 3 53 15 74 26 22 11 47 20 57 20 10 0
32 9 50 20 18 11 42 20 53 20 11 0 30 6 41 14 11 8 40 19 64 26 24 7 53 18 64
26 11 8 30 14 41 14 11 0 34 8 50 18 17 11 47 22 67 26 20 3 41 13 48 21 7 8
22 15 35 15 12 0 43 11 69 25 26 14 55 25 65 25 10 0 24 7 31 15 7 8 28 17 49
21 20 4 50 15 67 25 17 11 39 19 49 19 10 0 32 8 49 19 17 10 47 21 67 25 21
4 42 13 49 21 7 8 19 15 27 15 13 0 68 23 158 65 17 8 43 17 58 21 16 4 31 12
34 20 2 7 23 16 46 20 23 3 53 15 66 25 13 11 31 19 40 19 9 0 36 10 61 21 25
12 63 30 85 39 22 9 60 26 85 38 25 11 71 32 102 46 31 14 63 26 71 26 8 0 20
7 27 15 7 8 17 15 24 15 11 0 87 34 158 71 20 10 45 19 56 19 10 0 27 9 36 19
10 10 32 22 51 25 18 4 38 13 45 21 7 8 19 15 27 15 8 0 31 9 51 19 88 46 389
190 412 196 14 4 32 13 40 20 8 7 26 16 40 20 14 4 36 16 49 26 13 11 30 19
38 19 8 0 26 9 40 20 14 11 34 20 44 20 10 0 21 5 25 11 3 6 25 19 48 30 22
10 48 23 56 29 8 5 26 14 40 20 14 5 32 14 40 20 8 5 26 15 40 20 14 6 43 21
65 35 22 13 51 29 65 34 14 6 32 16 40 21 8 6 26 16 40 22 14 7 36 20 49 30
13 10 32 18 42 18 10 0 22 6 26 14 4 8 24 21 43 30 19 9 52 26 73 36 l37 20 0
18865 0 18865 -32125 0 -32125 0 0 -18785z"/>
</g>
</svg>
